<?xml version="1.0" encoding="UTF-8" standalone="no"?>
<!-- Created with Inkscape (http://www.inkscape.org/) -->

<svg
   xmlns:dc="http://purl.org/dc/elements/1.1/"
   xmlns:cc="http://creativecommons.org/ns#"
   xmlns:rdf="http://www.w3.org/1999/02/22-rdf-syntax-ns#"
   xmlns:svg="http://www.w3.org/2000/svg"
   xmlns="http://www.w3.org/2000/svg"
   xmlns:sodipodi="http://sodipodi.sourceforge.net/DTD/sodipodi-0.dtd"
   xmlns:inkscape="http://www.inkscape.org/namespaces/inkscape"
   width="210mm"
   height="297mm"
   viewBox="0 0 210 297"
   version="1.1"
   id="svg3758"
   inkscape:version="0.92.2 (5c3e80d, 2017-08-06)"
   sodipodi:docname="logo.svg">
  <defs
     id="defs3752" />
  <sodipodi:namedview
     id="base"
     pagecolor="#ffffff"
     bordercolor="#666666"
     borderopacity="1.0"
     inkscape:pageopacity="0.0"
     inkscape:pageshadow="2"
     inkscape:zoom="0.35"
     inkscape:cx="400"
     inkscape:cy="674.28571"
     inkscape:document-units="mm"
     inkscape:current-layer="g3796"
     showgrid="false"
     inkscape:window-width="1280"
     inkscape:window-height="657"
     inkscape:window-x="1358"
     inkscape:window-y="-8"
     inkscape:window-maximized="1" />
  <metadata
     id="metadata3755">
    <rdf:RDF>
      <cc:Work
         rdf:about="">
        <dc:format>image/svg+xml</dc:format>
        <dc:type
           rdf:resource="http://purl.org/dc/dcmitype/StillImage" />
        <dc:title></dc:title>
      </cc:Work>
    </rdf:RDF>
  </metadata>
  <g
     inkscape:label="Capa 1"
     inkscape:groupmode="layer"
     id="layer1" />
  <g
     id="g3796"
     inkscape:groupmode="layer"
     inkscape:label="Capa 1 copia">
    <path
       style="fill:#fcfdfc;stroke-width:0.29802364"
       d="M 2.1138738,175.06093 V 79.946432 H 97.136373 192.15886 v 95.114498 95.1145 H 97.136373 2.1138738 Z M 105.46894,252.19109 c 15.56114,-1.25978 29.71261,-6.09785 41.96342,-14.34634 5.51262,-3.71166 8.32835,-6.0595 13.30641,-11.0953 12.63907,-12.78569 20.06679,-27.97631 22.56406,-46.14641 0.51028,-3.71267 0.51028,-14.86086 0,-18.57353 -2.02578,-14.73956 -7.01662,-26.83271 -16.01059,-38.79475 -2.64425,-3.51686 -9.78664,-10.85756 -13.37956,-13.75104 -8.02108,-6.45959 -18.67615,-12.198845 -28.1064,-15.139253 -22.71413,-7.0824 -46.869551,-5.013062 -67.509056,5.783343 -22.41949,11.72749 -38.203662,32.45952 -42.7949,56.2098 -1.08314,5.60305 -1.360625,8.71788 -1.347714,15.12846 0.01366,6.81415 0.43245,10.81435 1.764481,16.85653 2.416946,10.96343 8.069869,22.73059 15.432157,32.12368 2.7208,3.4713 9.086481,9.8466 12.863078,12.88251 17.060162,13.71421 39.498302,20.62365 61.254614,18.8623 z m -16.189341,-1.91547 c -19.440872,-2.27276 -36.690704,-10.45719 -50.202534,-23.81933 -4.465221,-4.41576 -7.308445,-7.87001 -10.66131,-12.95247 -4.701298,-7.12649 -8.289294,-15.19273 -10.294255,-23.1427 -1.455761,-5.77231 -2.046843,-9.72199 -2.267312,-15.1504 -0.146216,-3.60012 -0.10915,-4.27969 0.216498,-3.96933 0.689436,0.65705 1.917075,0.41052 5.362347,-1.07682 4.09587,-1.76822 6.977317,-2.73388 11.735471,-3.93291 5.308069,-1.33761 6.583055,-2.07804 5.48636,-3.18617 -0.426653,-0.43111 -0.960996,-0.4744 -3.915791,-0.31723 -1.881942,0.10013 -4.186002,0.27201 -5.120129,0.38201 -1.435718,0.16913 -1.728125,0.12172 -1.890521,-0.30583 -0.270786,-0.71301 0.54949,-1.51579 5.516067,-5.39843 8.021639,-6.27093 13.714702,-10.2334 17.373191,-12.09203 4.23441,-2.15122 7.573883,-2.75325 7.765695,-1.4 0.05078,0.35817 -1.08798,2.51142 -2.772519,5.24254 -10.052427,16.29785 -15.192097,26.48327 -18.667309,36.99353 -1.670961,5.05358 -2.339949,8.82205 -2.111722,11.89553 0.337541,4.54565 2.730537,9.71022 5.858651,12.64416 4.004609,3.75604 6.178291,3.5012 10.935247,-1.28204 7.154151,-7.19367 23.088948,-30.33128 31.533919,-45.78781 6.82703,-12.49527 10.324505,-22.99892 8.308687,-24.95272 -1.652481,-1.60165 -2.866113,-0.86166 -6.61897,4.03582 -4.86131,6.34401 -6.906259,11.17976 -5.995589,14.17794 0.305614,1.00616 0.234224,1.23036 -1.204631,3.7831 -6.328562,11.2278 -14.727937,24.31666 -19.275578,30.03738 -3.232396,4.06621 -9.052741,10.12656 -10.437348,10.86773 -0.812859,0.43512 -0.857041,0.41674 -1.926826,-0.80132 -1.138693,-1.29653 -1.795062,-2.95193 -1.795062,-4.52725 0,-7.09182 10.6342,-28.80309 26.367513,-53.83312 2.439921,-3.88165 2.447439,-3.89979 2.287673,-5.51727 -0.327553,-3.3162 -3.46707,-7.87637 -6.005345,-8.72281 -5.125982,-1.70936 -23.992544,6.61276 -38.734686,17.08603 -4.865922,3.4569 -9.691837,8.62692 -10.652857,11.41245 -0.586475,1.6999 -0.557315,0.64881 0.05993,-2.16032 2.412192,-10.97809 7.938598,-22.35714 15.332605,-31.57034 2.847347,-3.54789 8.703053,-9.43305 12.234615,-12.29615 3.903088,-3.1643 9.646016,-6.86046 14.606449,-9.40074 8.597457,-4.402847 17.727255,-7.238685 28.235208,-8.770238 3.582772,-0.522195 18.345949,-0.523249 21.939659,-0.0016 23.14362,3.359637 42.08346,14.011088 55.94086,31.460228 1.26795,1.5966 2.30818,3.05592 2.31162,3.24292 0.004,0.18701 -1.76153,1.35651 -3.92213,2.5989 -13.27535,7.63353 -26.23912,17.92211 -42.96472,34.09855 l -5.53386,5.35217 h -5.21362 c -2.86749,0 -5.21361,-0.10474 -5.21361,-0.23293 0,-0.49949 0.96732,-1.58983 1.79339,-2.02147 0.47737,-0.24943 1.9035,-0.70662 3.16917,-1.01599 2.65097,-0.648 1.96113,-0.73492 -2.56288,-0.32296 -1.69688,0.15445 -3.69813,0.48818 -4.44723,0.74145 -3.919263,1.32511 -10.99766,9.09202 -10.99766,12.06738 0,1.95916 0.980858,2.3556 6.522606,2.63637 2.201374,0.11145 4.162294,0.28916 4.357604,0.39474 0.33508,0.18114 -2.84091,3.81578 -8.709772,9.96751 -2.074122,2.17411 -2.229656,2.27626 -3.011563,1.97805 -2.083801,-0.79474 -5.027316,0.9214 -9.306012,5.42567 -4.4478,4.68229 -7.987629,10.58975 -7.506404,12.52709 0.09378,0.37755 0.499662,0.90438 0.901956,1.17073 1.204591,0.7975 3.305993,0.1 6.094262,-2.02297 1.279454,-0.97416 8.370044,-7.83141 15.756865,-15.23833 l 13.430568,-13.46715 12.22989,-0.004 c 6.72644,-0.002 12.22989,0.0598 12.22989,0.13587 0,0.0763 -1.20815,2.43981 -2.68478,5.2525 -3.12366,5.94995 -5.44935,11.04728 -5.94156,13.02243 -0.74538,2.99101 0.36172,6.16487 2.72782,7.82023 1.05897,0.74086 1.53962,0.8769 3.08307,0.87269 2.72095,-0.007 5.12489,-1.37251 12.65719,-7.18731 6.42283,-4.95835 6.43246,-4.96754 6.63243,-6.31491 0.11013,-0.74213 0.13079,-1.41944 0.046,-1.50516 -0.0847,-0.0856 -1.34671,0.52344 -2.80419,1.35362 -4.73837,2.69895 -7.06168,3.69989 -8.06903,3.47635 -1.07693,-0.23887 -1.79273,-1.1682 -1.79273,-2.32742 0,-1.01876 2.58651,-6.88195 5.11978,-11.60568 l 1.84755,-3.4451 2.07537,-0.19586 c 1.14146,-0.10774 3.11539,-0.2883 4.38652,-0.40129 l 2.31115,-0.20544 3.95442,-5.02297 c 4.77882,-6.07015 5.01207,-6.41925 4.7808,-7.15553 -0.2462,-0.78378 -1.28813,-0.94906 -5.98253,-0.94906 -2.181,0 -3.96544,-0.0679 -3.96544,-0.15108 0,-0.26682 6.04365,-11.16521 10.21615,-18.42255 4.92168,-8.56042 7.25742,-13.21323 7.48185,-14.90383 0.093,-0.70022 0.25871,-1.27313 0.36837,-1.27313 0.29896,0 3.67108,6.67593 4.84225,9.58635 3.8655,9.60613 5.5951,18.59806 5.58946,29.05861 -0.004,6.34443 -0.43698,10.64717 -1.63437,16.22017 -6.51947,30.34344 -31.45185,54.48615 -63.33101,61.3251 -6.05569,1.29911 -8.90619,1.58868 -16.75122,1.70166 -5.1914,0.0748 -8.821885,-0.0191 -11.11808,-0.28759 z m 6.038858,-17.52247 c 1.175697,-0.73419 1.966158,-2.21975 1.966158,-3.6951 0,-1.5653 -1.092226,-2.9373 -3.159189,-3.96838 -2.204993,-1.09994 -2.770453,-1.56165 -2.770453,-2.26209 0,-1.39376 1.972942,-1.90937 4.012031,-1.04851 l 1.028165,0.43407 v -1.17245 c 0,-1.37826 -0.470717,-1.73535 -2.627925,-1.9935 -2.870991,-0.34356 -5.082462,1.45909 -5.0795,4.14052 0.0018,1.60918 0.951067,2.82359 3.027799,3.87339 2.323064,1.17433 2.900733,1.68248 2.900733,2.5516 0,1.53908 -2.722611,2.1366 -4.817706,1.05733 -0.59885,-0.3085 -1.160728,-0.48825 -1.248617,-0.39944 -0.311413,0.31466 -0.154287,2.08967 0.210803,2.38129 1.397265,1.11611 4.847287,1.16938 6.557701,0.1012 z m 6.943973,-1.85616 0.0858,-2.28117 1.74444,-0.15976 c 2.206,-0.20212 3.42347,-0.92674 4.168,-2.48075 1.09708,-2.28989 0.52759,-4.7687 -1.38694,-6.03693 -0.65623,-0.4347 -1.42814,-0.54053 -3.94254,-0.54053 h -3.126556 l -0.08009,6.58351 c -0.04405,3.62094 -0.01173,6.76344 0.07173,6.98332 0.09887,0.26036 0.540376,0.36731 1.266006,0.30666 l 1.1142,-0.0931 z m 0.0623,-7.00561 V 221.345 h 1.31263 c 1.06496,0 1.42862,0.14896 1.92714,0.78933 1.44141,1.85156 0.27892,4.30342 -2.04038,4.30342 h -1.19939 z m 23.58146,-57.72136 c 5.84142,-6.15948 14.55048,-13.91274 23.70742,-21.10557 4.02305,-3.16012 12.304,-8.98986 12.304,-8.66194 0,0.089 -1.97349,3.43122 -4.38551,7.42718 -2.41203,3.99596 -5.96642,9.96154 -7.89865,13.25685 -1.93222,3.29531 -4.07027,6.93512 -4.75124,8.08849 l -1.2381,2.097 -2.20369,0.18553 c -1.21203,0.10208 -5.53409,0.20313 -9.60458,0.22468 l -7.40091,0.0391 z"
       id="path3790"
       inkscape:connector-curvature="0" />
    <path
       style="fill:#0b0f08;stroke-width:0.29802364"
       d="M 93.270883,250.6197 C 75.783299,249.17035 59.108171,242.56754 45.68551,231.77742 41.908913,228.74151 35.543232,222.36621 32.822432,218.89491 25.460144,209.50182 19.807221,197.73466 17.390275,186.77123 c -1.332031,-6.04218 -1.750757,-10.04238 -1.764481,-16.85653 -0.02577,-12.79988 2.434908,-23.41214 8.08673,-34.87584 10.827237,-21.96109 31.504395,-38.09213 56.498239,-44.07644 17.28214,-4.13788 36.809197,-2.6371 53.293537,4.09595 7.4807,3.0555 15.6739,7.8764 21.87956,12.87398 3.59292,2.89348 10.73531,10.23418 13.37956,13.75104 8.99397,11.96204 13.98481,24.05519 16.01059,38.79475 0.51028,3.71267 0.51028,14.86086 0,18.57353 -2.49727,18.1701 -9.92499,33.36072 -22.56406,46.14641 -4.97806,5.0358 -7.79379,7.38364 -13.30641,11.0953 -15.96048,10.74621 -36.13724,15.94205 -55.632657,14.32632 z m 19.419557,-2.21209 c 19.23896,-3.04804 35.56114,-11.20072 48.30969,-24.12994 12.36744,-12.54269 19.93766,-28.00565 22.14131,-45.226 0.59768,-4.67044 0.58283,-14.10854 -0.0294,-18.71145 -0.93298,-7.01404 -2.57763,-13.32572 -5.11603,-19.63392 -1.17115,-2.91042 -4.54329,-9.58635 -4.84223,-9.58635 -0.10961,0 -0.27543,0.57291 -0.36839,1.27313 -0.22441,1.6906 -2.56015,6.34341 -7.48183,14.90383 -4.17251,7.25734 -10.21615,18.15573 -10.21615,18.42255 0,0.083 1.78444,0.15108 3.96544,0.15108 4.6944,0 5.73633,0.16524 5.98252,0.94906 0.23128,0.73628 -0.002,1.08538 -4.78079,7.15552 l -3.95443,5.02298 -2.31114,0.20543 c -1.27114,0.11305 -3.24506,0.29357 -4.38653,0.40129 l -2.07537,0.19586 -1.84754,3.44511 c -2.53328,4.72373 -5.11978,10.58692 -5.11978,11.60567 0,1.15923 0.7158,2.08855 1.79273,2.32755 1.00735,0.22356 3.33066,-0.7774 8.06902,-3.47635 1.45749,-0.83019 2.71938,-1.4393 2.80419,-1.3536 0.0849,0.0856 0.0641,0.76303 -0.046,1.50516 -0.19997,1.34737 -0.2096,1.35655 -6.63244,6.31489 -7.53229,5.81482 -9.93623,7.17988 -12.65718,7.18733 -1.54346,0.004 -2.02411,-0.1318 -3.08307,-0.87271 -2.36611,-1.65535 -3.4732,-4.82921 -2.72782,-7.82021 0.49221,-1.97515 2.8179,-7.07248 5.94155,-13.02243 1.47664,-2.81269 2.68478,-5.17633 2.68478,-5.25252 0,-0.0763 -5.50345,-0.13729 -12.22988,-0.13605 l -12.22989,0.004 -13.430567,13.46714 c -7.386822,7.40694 -14.477412,14.26418 -15.756866,15.23832 -2.788269,2.12294 -4.889671,2.8205 -6.094262,2.02299 -0.402294,-0.26634 -0.808172,-0.79317 -0.901956,-1.17073 -0.481225,-1.93734 3.058604,-7.84479 7.506404,-12.52709 4.278696,-4.50426 7.222211,-6.22043 9.30601,-5.42568 0.78191,0.29822 0.93744,0.19607 3.01157,-1.97803 5.868857,-6.15176 9.044847,-9.78637 8.709767,-9.96751 -0.19531,-0.10562 -2.15623,-0.28324 -4.35761,-0.39477 -5.541737,-0.28074 -6.522597,-0.67719 -6.522597,-2.63634 0,-2.97537 7.078387,-10.74227 10.997657,-12.06739 0.74909,-0.25327 2.75035,-0.58693 4.44723,-0.74144 4.52401,-0.41198 5.21385,-0.32504 2.56288,0.32294 -1.26567,0.30936 -2.6918,0.76658 -3.16918,1.01601 -0.82606,0.43163 -1.79338,1.52197 -1.79338,2.02147 0,0.12808 2.34612,0.2329 5.2136,0.2329 h 5.21363 l 5.53386,-5.35216 c 16.7256,-16.17657 29.68937,-26.46515 42.96472,-34.09869 2.1606,-1.24238 3.92557,-2.41189 3.92212,-2.59889 -0.0105,-0.53709 -4.35648,-5.87284 -7.27849,-8.93481 -3.88458,-4.07065 -6.154,-6.12245 -10.00131,-9.04229 -11.81936,-8.97006 -25.21542,-14.43865 -40.97267,-16.72605 -3.59372,-0.52169 -18.356887,-0.52063 -21.939659,0.002 -10.507953,1.53155 -19.637751,4.36739 -28.235208,8.77023 -4.960433,2.5403 -10.703361,6.23646 -14.606449,9.40076 -3.531562,2.86309 -9.387268,8.74825 -12.234615,12.29615 -7.394007,9.21319 -12.920413,20.59225 -15.332605,31.57034 -0.617244,2.80912 -0.646403,3.86021 -0.05993,2.16031 1.919826,-5.56463 13.523762,-14.61209 28.071872,-21.88731 10.363654,-5.18266 18.257501,-7.63097 21.315671,-6.61116 2.538275,0.84644 5.677792,5.40661 6.005345,8.7228 0.159768,1.61749 0.152256,1.63562 -2.287673,5.51728 -13.856587,22.04437 -24.130781,42.19234 -25.94157,50.87215 -0.754555,3.61687 -0.418976,5.45227 1.369119,7.48821 1.069785,1.21806 1.113967,1.23644 1.926826,0.80133 1.384607,-0.74118 7.204952,-6.80153 10.437348,-10.86774 4.547641,-5.72072 12.947016,-18.80958 19.275578,-30.03738 1.438855,-2.55273 1.510245,-2.77693 1.204631,-3.7831 -0.91067,-2.99818 1.134279,-7.83393 5.995589,-14.17794 3.752857,-4.89748 4.966489,-5.63747 6.618973,-4.03582 1.56976,1.52147 -0.14165,8.20321 -4.434568,17.31361 -5.020182,10.65379 -13.627388,24.66449 -24.1188,39.26026 -5.488314,7.63541 -8.288638,11.14949 -11.289241,14.16666 -4.756956,4.78324 -6.930638,5.03808 -10.935247,1.28204 -3.128114,-2.93393 -5.52111,-8.09851 -5.858651,-12.64416 -0.228227,-3.07348 0.440761,-6.84195 2.111722,-11.89553 3.475212,-10.51026 8.614882,-20.69567 18.667309,-36.99353 1.684539,-2.73112 2.823286,-4.88436 2.772519,-5.24253 -0.191812,-1.35326 -3.531285,-0.75122 -7.765695,1.4 -3.658489,1.85863 -9.351552,5.8211 -17.373191,12.09203 -4.966577,3.88263 -5.786853,4.68541 -5.516067,5.39843 0.162394,0.42759 0.454803,0.4749 1.890521,0.30583 0.934127,-0.11004 3.238187,-0.28192 5.120129,-0.38201 2.954795,-0.1571 3.489138,-0.11394 3.915791,0.31722 1.096696,1.10813 -0.178291,1.84857 -5.48636,3.18617 -4.758154,1.19903 -7.639601,2.1647 -11.735471,3.93291 -3.445272,1.48735 -4.672911,1.73387 -5.362347,1.07682 -0.32565,-0.31036 -0.362714,0.36922 -0.216498,3.96933 0.543231,13.37552 4.914637,26.70146 12.561567,38.29311 3.352865,5.08245 6.196089,8.5367 10.66131,12.95246 13.51183,13.36214 30.761662,21.54658 50.202534,23.81933 4.658124,0.54457 17.691081,0.35648 21.939651,-0.31664 z M 91.491987,231.73084 c -1.344718,-0.50541 -1.63065,-0.83652 -1.63065,-1.88825 0,-1.30064 0.144622,-1.37497 1.408417,-0.72393 2.095099,1.07927 4.817709,0.48175 4.817709,-1.05733 0,-0.86912 -0.57767,-1.37727 -2.90074,-2.5516 -2.076728,-1.0498 -3.02602,-2.26421 -3.027795,-3.87339 -0.003,-2.68143 2.208509,-4.48408 5.079505,-4.14052 2.1572,0.25815 2.62792,0.61524 2.62792,1.9935 v 1.17245 l -1.02816,-0.43407 c -2.03909,-0.86086 -4.01204,-0.34525 -4.01204,1.04851 0,0.70044 0.56546,1.16215 2.77046,2.26209 2.06696,1.03108 3.15919,2.40308 3.15919,3.96838 0,1.47535 -0.79046,2.96091 -1.96616,3.6951 -1.19289,0.74494 -3.98215,1.02349 -5.297656,0.52906 z m 9.775553,-0.3176 c -0.0835,-0.21988 -0.11578,-3.36238 -0.0717,-6.98332 l 0.0801,-6.58351 h 3.12655 c 2.51441,0 3.28632,0.1058 3.94254,0.54052 1.91454,1.26824 2.48403,3.74705 1.38695,6.03694 -0.74453,1.55401 -1.962,2.27863 -4.16801,2.48075 l -1.74443,0.15975 -0.0858,2.28118 -0.0858,2.28115 -1.11419,0.0931 c -0.72564,0.0607 -1.16713,-0.0463 -1.26601,-0.30666 z m 5.65498,-7.26219 c 0.91727,-0.92681 0.96631,-2.47227 0.11328,-3.56809 -0.49853,-0.64037 -0.86218,-0.78933 -1.92714,-0.78933 h -1.31263 v 2.54638 2.54637 h 1.19938 c 0.87814,0 1.39435,-0.19696 1.92714,-0.73533 z m 35.98916,-58.24486 2.20369,-0.18553 1.2381,-2.097 c 0.68097,-1.15337 2.81902,-4.79318 4.75124,-8.08849 1.93223,-3.29531 5.48662,-9.26089 7.89865,-13.25685 2.41203,-3.99596 4.38551,-7.33819 4.38551,-7.42718 0,-0.32792 -8.28095,5.50182 -12.304,8.66194 -9.15693,7.19283 -17.866,14.94609 -23.70742,21.10557 l -1.47126,1.55137 7.40091,-0.0391 c 4.0705,-0.0216 8.39256,-0.1226 9.60458,-0.22468 z"
       id="path3792"
       inkscape:connector-curvature="0" />
  </g>
</svg>
